<svg width="24" height="25" viewBox="0 0 24 25" fill="none" xmlns="http://www.w3.org/2000/svg">
<g clip-path="url(#clip0_135_630)">
<path d="M12 0.5C5.37321 0.5 0 5.87321 0 12.5C0 19.1268 5.37321 24.5 12 24.5C18.6268 24.5 24 19.1268 24 12.5C24 5.87321 18.6268 0.5 12 0.5ZM12 22.4643C6.49821 22.4643 2.03571 18.0018 2.03571 12.5C2.03571 6.99821 6.49821 2.53571 12 2.53571C17.5018 2.53571 21.9643 6.99821 21.9643 12.5C21.9643 18.0018 17.5018 22.4643 12 22.4643Z" fill="#D21F3C"/>
<path d="M17.5552 12.1544L9.62397 6.39551C9.56036 6.34888 9.48505 6.32083 9.40644 6.31449C9.32782 6.30815 9.24899 6.32376 9.17872 6.35958C9.10846 6.39541 9.04952 6.45005 9.00848 6.5174C8.96745 6.58475 8.94592 6.66218 8.94629 6.74105V18.2589C8.94629 18.6098 9.34272 18.808 9.62397 18.6044L17.5552 12.8455C17.61 12.8061 17.6546 12.7541 17.6853 12.6941C17.7161 12.634 17.7321 12.5675 17.7321 12.5C17.7321 12.4325 17.7161 12.366 17.6853 12.3059C17.6546 12.2458 17.61 12.1939 17.5552 12.1544ZM10.6552 15.7437V9.25623L15.1204 12.5L10.6552 15.7437Z" fill="#D21F3C"/>
</g>
<defs>
<clipPath id="clip0_135_630">
<rect width="24" height="24" fill="white" transform="translate(0 0.5)"/>
</clipPath>
</defs>
</svg>
