<?xml version="1.0" encoding="UTF-8"?>
<svg id="Layer_1" data-name="Layer 1" xmlns="http://www.w3.org/2000/svg" xmlns:xlink="http://www.w3.org/1999/xlink" viewBox="0 0 1651.42 573.3">
  <defs>
    <style>
      .cls-1 {
        fill: url(#linear-gradient-2);
      }

      .cls-2 {
        fill: #d21f3c;
      }

      .cls-3 {
        opacity: .03;
      }

      .cls-4 {
        fill: url(#linear-gradient);
      }
    </style>
    <linearGradient id="linear-gradient" x1="-39" y1="286.65" x2="203.17" y2="286.65" gradientUnits="userSpaceOnUse">
      <stop offset="0" stop-color="#d21f3c"/>
      <stop offset=".59" stop-color="#dd5162"/>
      <stop offset="1" stop-color="#e4717a"/>
    </linearGradient>
    <linearGradient id="linear-gradient-2" x1="618.08" y1="172.22" x2="-34.31" y2="397.46" gradientUnits="userSpaceOnUse">
      <stop offset="0" stop-color="#d21f3c"/>
      <stop offset=".05" stop-color="#d42c46"/>
      <stop offset=".17" stop-color="#da4558"/>
      <stop offset=".31" stop-color="#de5867"/>
      <stop offset=".46" stop-color="#e16672"/>
      <stop offset=".65" stop-color="#e36e78"/>
      <stop offset="1" stop-color="#e4717a"/>
    </linearGradient>
  </defs>
  <g>
    <path class="cls-2" d="m724.63,208.51v10.74c-13.04-9.45-28.9-14.4-46.4-14.4-20.72,0-40.18,8.16-54.78,22.97-14.62,14.82-22.66,34.6-22.66,55.68s8.05,41.08,22.65,55.95c14.59,14.84,34.04,23.02,54.79,23.02,17.51,0,33.36-4.95,46.4-14.4v14.97h29.8v-154.53h-29.8Zm-43.66,126.59c-28.08,0-50.07-22.66-50.07-51.6s22.46-51.29,50.07-51.29c17.85,0,32.92,7.78,43.66,22.54v57.81c-10.74,14.75-25.81,22.54-43.66,22.54Z"/>
    <rect class="cls-2" x="780.73" y="141.5" width="29.8" height="221.53"/>
    <path class="cls-2" d="m866.95,284.08c0,29.36,20.16,50.68,47.94,50.68,11.78,0,21.85-3.54,29.09-9.83v32.82c-8.82,3.43-18.63,5.28-29.09,5.28-44.49,0-78.05-33.94-78.05-78.95s33.55-78.65,78.05-78.65c10.46,0,20.27,1.86,29.09,5.28v32.83c-7.24-6.3-17.31-9.84-29.09-9.84-27.77,0-47.94,21.19-47.94,50.38Z"/>
    <polygon class="cls-2" points="1156.59 363.03 1156.59 187.16 1086.77 363.03 1058.7 363.03 989.9 187.81 989.9 363.03 970.27 363.03 970.27 141.5 993.51 141.5 1072.77 344.06 1152.97 141.5 1176.23 141.5 1176.23 363.03 1156.59 363.03"/>
    <path class="cls-2" d="m1273.93,363.03c-20.09,0-38.36-7.45-51.43-20.99-12.88-13.33-19.97-31.67-19.97-51.62s7.09-38.07,19.97-51.36c13.09-13.51,31.35-20.95,51.43-20.95,18.86,0,35.89,7.2,47.97,20.27,12.01,13,18.71,31.27,18.86,51.44,0,2.34,0,4.78-.15,7.02h-121.27l1.5,7.57c5.31,26.88,26.39,44.24,53.71,44.24,19.35,0,34.95-8.07,41.99-21.66h18.85c-8.79,21.97-32.6,36.03-61.46,36.03Zm-.61-130.55c-31.97,0-48.24,23.8-52.45,44.19l-1.58,7.63h104.54l-1.16-7.33c-4.34-27.44-23.25-44.48-49.35-44.48Z"/>
    <path class="cls-2" d="m1478.93,363.03v-78.41c0-29.53-17.17-47.87-44.82-47.87-18.43,0-36.75,9.61-49.01,25.7l-1.3,1.7v98.88h-17.12v-137.3h17.12v17.79l10.22-7.87c12.29-9.48,27.43-14.49,43.76-14.49,17.17,0,31.75,5.88,42.18,16.99,10.53,11.23,16.1,26.98,16.1,45.56v79.33h-17.12Z"/>
    <path class="cls-2" d="m1586.88,363.03c-35.58,0-64.53-28.95-64.53-64.54v-77.34h17.22v77.34c0,26.09,21.22,47.32,47.31,47.32s47.32-21.23,47.32-47.32v-77.34h17.22v77.34c0,17.23-6.71,33.44-18.9,45.64-12.18,12.19-28.39,18.9-45.63,18.9Z"/>
  </g>
  <g>
    <path class="cls-4" d="m333.07,420.42c-32.67,13.18-70.61,20.72-111.09,20.72C99.4,441.14.04,371.97.04,286.65s99.37-154.49,221.94-154.49c40.46,0,78.4,7.54,111.07,20.71-14.53-5.04-30.15-7.78-46.4-7.78-78.17,0-141.55,63.38-141.55,141.55s63.37,141.55,141.55,141.55c16.26,0,31.88-2.74,46.42-7.79Z"/>
    <path class="cls-3" d="m268.9,135.62c-5.83-.45-11.71-.68-17.65-.68-123.7,0-224.29,98.96-226.94,222.02C8.79,335.87.04,311.98.04,286.65.04,201.33,99.4,132.16,221.98,132.16c16.1,0,31.8,1.19,46.92,3.46Z"/>
    <path class="cls-1" d="m481.38,322.04h89.75c-17.43,141.61-138.15,251.26-284.48,251.26C128.34,573.3,0,444.96,0,286.65S128.34,0,286.65,0c146.33,0,267.05,109.65,284.48,251.26h-89.3c-31,0-59.62-15.96-76.58-41.92-11.23-17.19-26.09-31.79-43.5-42.7h0c-8.93-5.6-18.52-10.23-28.63-13.74-.02,0-.04-.01-.06-.03-32.67-13.17-70.61-20.71-111.07-20.71C99.4,132.16.04,201.33.04,286.65s99.37,154.49,221.94,154.49c40.47,0,78.42-7.54,111.09-20.72,0,0,0,0,.01,0,10.16-3.53,19.79-8.18,28.75-13.8.03-.01.06-.04.09-.05,17.45-10.97,32.33-25.65,43.54-42.92,16.75-25.79,45.18-41.59,75.93-41.59Z"/>
  </g>
</svg>